<?xml version="1.0" encoding="utf-8" ?>
<svg xmlns="http://www.w3.org/2000/svg" xmlns:xlink="http://www.w3.org/1999/xlink" width="1024" height="1024">
	<path fill="#122942" d="M699.53 876.134C701.465 875.974 703.067 875.762 704.734 876.924C705.961 880.058 705.044 922.709 705.055 930.29L699.402 930.174Q699 903.153 699.53 876.134Z"/>
	<path fill="#122942" d="M343.355 876.756Q363.858 876.581 384.36 876.746L384.291 882.721C378.451 882.614 372.601 882.648 366.76 882.62C366.676 892.035 366.782 901.459 366.805 910.875C366.848 915.493 367.963 921.759 366.928 926.167C366.51 927.95 365.316 929.882 363.705 930.78C362.98 931.184 363.221 931.098 362.441 930.914C359.85 928.312 361.019 888.262 361.002 882.515C356.327 882.437 347.278 884.044 343.54 881.455C342.662 879.96 343.13 878.387 343.355 876.756Z"/>
	<path fill="#122942" d="M728.029 876.217C734.111 876.172 760.238 875.276 764.057 876.625C765.402 877.1 765.734 877.573 766.4 878.79C766.236 879.971 766.276 880.773 765.289 881.604C762.668 883.812 751.566 882.47 747.664 882.491L747.521 914.875L747.511 930.44L741.262 930.406Q741.345 906.452 741.048 882.499L723.219 882.467C723.166 880.669 722.987 878.923 723.561 877.191C725.051 876.129 726.227 876.331 728.029 876.217Z"/>
	<path fill="#122942" d="M779.561 875.995C781.894 875.798 784.224 875.846 786.563 875.858C792.8 885.201 798.381 895.165 804.279 904.742Q813.296 890.641 821.899 876.283C824.234 876.217 826.582 876.257 828.919 876.247C825.873 881.625 822.459 886.852 819.223 892.121Q813.203 901.722 806.965 911.182C806.723 917.592 806.895 924.061 806.905 930.478L800.992 930.558C800.969 925.057 801.66 918.828 800.763 913.425C799.57 906.247 784.186 884.055 779.561 875.995Z"/>
	<path fill="#122942" d="M584.198 782.511L594.252 782.602L594.039 848.767C590.849 849.036 587.549 848.953 584.343 849.029Q584.477 815.77 584.198 782.511Z"/>
	<path fill="#122942" d="M292.635 876.593C300.928 876.571 315.683 875.495 323.271 876.697C324.62 876.91 324.877 877.162 325.668 878.256C325.907 879.533 325.888 880.064 325.377 881.262C322.524 883.543 303.386 882.273 298.617 882.207L298.789 899.81Q311.354 899.839 323.918 899.739L323.601 905.474Q311.256 905.404 298.912 905.461Q298.817 915.031 298.97 924.6L326.675 924.696C326.665 926.564 326.572 928.176 326.14 929.997C323.066 931.125 297.686 930.328 292.575 930.326L292.635 876.593Z"/>
	<path fill="#122942" d="M835.152 782.989C838.257 782.892 841.363 782.951 844.468 782.978L844.562 840.568L879.55 840.688C879.604 843.413 879.488 846.15 879.43 848.876C864.661 849.3 849.683 848.696 834.894 848.666C834.741 834.687 834.863 820.698 834.895 806.718C834.914 798.837 834.465 790.844 835.152 782.989Z"/>
	<path fill="#122942" d="M670.173 876.083L676.466 876.245C676.173 892.989 676.808 909.771 676.376 926.509C676.327 928.41 676.331 929.399 674.923 930.726C674.693 930.701 674.462 930.672 674.232 930.65C673.675 930.596 673.129 930.566 672.577 930.457C667.745 929.504 641.314 893.226 636.978 886.903C636.451 892.137 636.742 897.582 636.728 902.851L636.668 930.459C634.7 930.464 632.722 930.305 630.757 930.199C630.791 913.454 630.354 896.659 630.577 879.925C630.596 878.488 630.285 877.189 631.335 876.164C632.131 876.138 632.952 876.094 633.747 876.154C634.806 876.234 635.417 876.377 636.277 877.018C641.033 880.565 646.227 888.94 650.022 893.846C656.667 902.439 663.29 911.097 670.333 919.37C670.498 904.951 670.243 890.504 670.173 876.083Z"/>
	<path fill="#122942" d="M223.296 876.061L223.611 876.065C224.621 876.071 225.783 875.992 226.773 876.187C229.654 876.752 258.273 913.579 262.491 919.039Q262.579 897.723 262.444 876.407C264.439 876.238 266.457 876.205 268.458 876.12C268.869 894.259 269.749 912.786 268.411 930.882L263.429 930.315C252.814 915.593 240.466 902.034 229.489 887.566L229.435 930.357L223.062 930.493L222.783 896.753C222.745 890.065 222.17 882.657 223.296 876.061Z"/>
	<path fill="#122942" d="M351.965 783.108L396.076 782.974L395.984 791.332C384.731 790.713 373.219 791.225 361.94 791.293L361.974 813.501C371.799 813.372 381.686 813.053 391.493 813.784L391.426 821.501L362.015 821.497L361.903 849.213L352.042 849.325L351.965 783.108Z"/>
	<path fill="#122942" d="M470.677 876.219C472.979 876.19 475.242 876.413 477.533 876.616Q471.347 892.64 465.594 908.825C463.124 915.634 460.882 923.354 457.285 929.646C455.653 930.343 453.53 930.026 451.781 929.973C445.778 916.039 441.262 901.394 436.59 886.971C434.701 893.118 423.86 926.886 420.279 929.3C419.12 930.081 418.764 929.973 417.467 929.781C415.931 928.72 415.082 927.663 414.178 926.024C411.912 921.918 410.545 917.014 408.953 912.603Q404.724 900.707 400.314 888.877C398.882 884.897 397.293 880.963 395.774 877.014C398.007 876.806 400.273 876.822 402.515 876.773C409.305 890.525 413.454 906.476 418.292 921.042Q425.891 898.735 434.123 876.653L439.306 876.744C444.426 891.651 449.283 906.651 454.634 921.477C460.477 906.57 464.935 891.158 470.677 876.219Z"/>
	<path fill="#122942" d="M488.736 782.21C497.832 782.049 504.688 783.987 512.49 788.609L507.69 795.626C503.32 793.355 498.693 791.33 493.769 790.693C489.292 790.113 484.576 790.404 480.955 793.411C479.188 794.879 477.26 797.193 477.227 799.614C477.105 808.746 501.509 812.759 509.114 819.478C512.077 822.097 514.44 825.581 514.594 829.645C514.78 834.578 512.256 840.125 508.761 843.525C503.108 849.026 495.839 849.435 488.427 849.479C479.673 848.599 473.576 846.408 466.428 841.257C467.401 838.54 468.701 835.981 469.966 833.393C476.931 837.962 485.077 842.275 493.714 841.182C497.078 840.757 500.69 839.419 502.762 836.591C504.115 834.744 504.474 832.631 504.028 830.406C501.964 820.104 481.794 818.798 474.036 813.238C471.088 811.125 469.002 808.288 468.458 804.649C467.763 800.007 469.167 793.283 472.085 789.553C476.154 784.352 482.543 782.975 488.736 782.21Z"/>
	<path fill="#122942" d="M543.279 782.198C552.698 781.637 560.723 783.898 568.806 788.625C567.259 791.101 565.372 793.455 563.647 795.817C557.119 792.63 551.447 789.957 543.931 790.445C540.985 790.637 537.933 791.893 536.032 794.222C534.639 795.93 533.392 798.217 533.759 800.495C535.079 808.684 556.469 812.789 563.132 817.478C566.711 819.996 569.847 823.559 570.521 828.018C571.184 832.41 569.458 837.203 566.878 840.718C562.463 846.733 555.836 848.573 548.826 849.503C539.392 849.553 531.347 847.411 523.316 842.461C524.525 839.64 525.999 836.941 527.414 834.22C534.148 838.304 540.276 841.78 548.496 841.111C552.962 840.747 556.8 839.244 559.621 835.645C560.754 834.199 561.667 832.332 561.281 830.444C559.705 822.734 538.057 818.327 531.565 813.824C528.043 811.382 525.055 807.917 524.387 803.562Q524.315 803.101 524.268 802.636Q524.22 802.172 524.197 801.705Q524.173 801.239 524.174 800.772Q524.174 800.305 524.199 799.838Q524.224 799.372 524.272 798.908Q524.321 798.443 524.394 797.982Q524.467 797.521 524.563 797.064Q524.659 796.607 524.779 796.155Q524.899 795.704 525.042 795.26Q525.186 794.815 525.351 794.378Q525.517 793.942 525.706 793.515Q525.894 793.087 526.104 792.67Q526.314 792.253 526.545 791.847Q526.777 791.442 527.029 791.048Q527.281 790.655 527.553 790.276Q527.825 789.896 528.116 789.531C532.037 784.568 537.279 783 543.279 782.198Z"/>
	<path fill="#122942" d="M577.479 876.25C584.022 876.142 591.204 875.422 597.521 877.535C601.612 878.904 605.347 881.575 607.151 885.591C608.867 889.413 608.823 894.12 607.271 897.988C605.004 903.638 600.602 906.451 595.302 908.78C599.431 916.068 604.522 922.774 608.347 930.263C606.569 930.824 604.217 930.456 602.343 930.4C600.658 928.166 599.129 925.758 597.543 923.449C594.408 918.587 591.404 913.703 588.557 908.666L574.499 908.685L574.496 930.363L568.509 930.168L568.329 876.539L577.479 876.25ZM576.726 881.763L575.009 882.105C573.147 886.231 574.381 898.193 574.449 903.236C581.787 903.443 589.71 904.257 596.719 901.621C599.381 899.824 601.202 897.858 601.834 894.606C602.329 892.058 602.073 889.231 600.57 887.052C598.36 883.847 594.148 882.618 590.493 882.08C585.964 881.413 581.287 881.561 576.726 881.763Z"/>
	<path fill="#122942" d="M410.008 783.013C424.785 783.117 439.588 782.858 454.359 783.267L454.296 791.242Q436.936 790.852 419.574 791.129L419.556 812.058L451.452 812.142L451.202 820.379C441.93 820.051 432.627 820.257 423.351 820.319C422.293 820.344 421.3 820.5 420.257 820.662C418.392 824.323 419.577 836.063 419.639 840.5L454.196 840.502C454.328 843.381 454.161 846.292 454.09 849.173C439.358 848.816 424.575 849.134 409.838 849.236C409.635 827.173 409.964 805.08 410.008 783.013Z"/>
	<path fill="#122942" d="M736.134 782.73L745.647 782.79Q745.975 815.631 745.805 848.473L737.833 848.725C729.377 838.529 721.261 827.97 713.237 817.432C709.134 812.042 705.191 805.901 700.534 801.005C700.583 808.738 701.725 844.08 699.884 848.553L690.992 848.493Q691.519 815.776 691.025 783.059L698.387 782.968C711.343 798.937 724.246 815.134 736.499 831.643Q736.487 807.185 736.134 782.73Z"/>
	<path fill="#122942" d="M784.466 782.446C787.788 782.456 791.114 782.572 794.435 782.649C802.971 805.01 814.773 826.065 823.145 848.495L812.324 848.507C810.701 843.713 808.607 839.011 806.723 834.311L792.575 834.29C785.589 834.293 778.565 834.432 771.586 834.138C769.796 839.065 767.799 843.941 765.936 848.844L755.395 848.497L784.466 782.446ZM789.395 792.996C784.378 803.917 780.016 815.226 775.273 826.281C779.989 826.343 784.71 826.462 789.426 826.44C793.99 826.456 798.572 826.386 803.134 826.493C800.866 820.917 791.859 796.372 789.395 792.996Z"/>
	<path fill="#122942" d="M141.526 783.072C154.346 782.82 174.269 780.25 184.879 788.457C189.081 791.708 191.554 796.504 192.04 801.772C192.611 807.949 190.705 814.41 186.567 819.077C181.873 824.372 175.921 825.698 169.195 826.224L151.582 826.432L151.486 849.467L141.713 849.453C141.307 841.366 141.539 833.154 141.534 825.055L141.526 783.072ZM151.504 791.391L151.53 818.051C160.449 818.303 170.822 819.703 178.482 814.208C181.082 810.763 182.979 807.155 182.222 802.702C181.568 798.857 179.316 795.893 176.528 793.3C168.252 790.906 160.034 791.307 151.504 791.391Z"/>
	<path fill="#122942" d="M205.557 783.172C217.989 782.94 233.823 780.969 245.451 785.625C250.077 787.477 253.927 790.804 255.87 795.455C257.975 800.493 257.735 806.574 255.452 811.506C252.431 818.03 246.914 820.766 240.571 823.164C246.428 832.107 253.116 840.507 258.968 849.472L249.934 849.5C245.749 848.491 232.945 829.025 229.916 824.539L215.582 824.578L215.474 849.469L205.802 849.35L205.557 783.172ZM216.071 791.629C213.96 798.777 215.277 809.014 215.425 816.565C223.735 816.644 235.411 818.097 242.735 813.317C245.393 810.299 247.417 806.816 247.151 802.638C246.964 799.681 245.546 796.679 243.294 794.742C237.065 789.381 223.768 791.177 216.071 791.629Z"/>
	<path fill="#122942" d="M515.449 875.674C522.283 875.057 529.114 876.535 534.85 880.388Q535.419 880.769 535.969 881.179Q536.519 881.588 537.048 882.024Q537.576 882.46 538.083 882.922Q538.589 883.384 539.071 883.87Q539.554 884.357 540.012 884.867Q540.47 885.377 540.902 885.909Q541.334 886.441 541.738 886.994Q542.143 887.547 542.52 888.119Q542.897 888.692 543.245 889.282Q543.593 889.873 543.911 890.48Q544.229 891.087 544.516 891.709Q544.803 892.331 545.06 892.967Q545.316 893.602 545.54 894.25Q545.764 894.898 545.955 895.556Q546.147 896.214 546.305 896.88Q546.464 897.547 546.589 898.221Q546.718 898.885 546.813 899.554Q546.908 900.224 546.97 900.897Q547.031 901.57 547.059 902.246Q547.087 902.922 547.081 903.598Q547.075 904.274 547.035 904.949Q546.995 905.624 546.921 906.296Q546.848 906.968 546.74 907.636Q546.633 908.304 546.493 908.965Q546.352 909.626 546.179 910.28Q546.005 910.934 545.799 911.578Q545.593 912.222 545.355 912.855Q545.117 913.487 544.848 914.108Q544.578 914.728 544.278 915.334Q543.978 915.94 543.648 916.53Q543.318 917.12 542.959 917.693Q542.599 918.266 542.212 918.82C537.274 925.877 530.291 928.985 522.128 930.401C515.416 930.92 508.965 930.095 503.176 926.37Q502.595 925.996 502.033 925.592Q501.471 925.189 500.931 924.758Q500.39 924.327 499.872 923.869Q499.354 923.411 498.859 922.927Q498.365 922.444 497.896 921.936Q497.426 921.428 496.983 920.897Q496.54 920.366 496.125 919.813Q495.709 919.26 495.322 918.687Q494.935 918.114 494.577 917.522Q494.22 916.93 493.892 916.321Q493.565 915.712 493.269 915.087Q492.973 914.462 492.709 913.823Q492.445 913.184 492.213 912.532Q491.982 911.881 491.784 911.218Q491.585 910.556 491.421 909.884Q491.256 909.212 491.126 908.533C489.662 901.195 490.89 893.242 495.207 887.04C500.181 879.895 507.28 877.12 515.449 875.674ZM515.623 881.533C509.138 883.313 503.726 885.934 500.287 892.08Q500.004 892.594 499.748 893.121Q499.492 893.649 499.262 894.188Q499.033 894.728 498.832 895.279Q498.63 895.83 498.457 896.39Q498.284 896.95 498.139 897.518Q497.995 898.087 497.879 898.662Q497.764 899.237 497.678 899.817Q497.592 900.397 497.535 900.981Q497.479 901.564 497.452 902.15Q497.425 902.736 497.428 903.322Q497.431 903.909 497.464 904.494Q497.496 905.08 497.559 905.663Q497.621 906.246 497.713 906.825Q497.805 907.404 497.926 907.978Q498.048 908.552 498.198 909.119Q498.348 909.685 498.527 910.244Q498.69 910.757 498.88 911.261Q499.069 911.766 499.285 912.259Q499.5 912.753 499.741 913.235Q499.981 913.717 500.247 914.186Q500.512 914.654 500.801 915.109Q501.09 915.563 501.402 916.002Q501.715 916.441 502.049 916.863Q502.384 917.286 502.74 917.69Q503.095 918.094 503.472 918.479Q503.848 918.865 504.244 919.23Q504.64 919.596 505.054 919.94Q505.468 920.285 505.899 920.607Q506.331 920.93 506.778 921.23Q507.226 921.529 507.688 921.806Q508.15 922.082 508.626 922.334Q509.103 922.586 509.591 922.813C513.606 924.675 517.937 925.181 522.311 924.719C528.693 922.677 533.969 919.58 537.231 913.46Q537.484 912.977 537.712 912.482Q537.94 911.986 538.144 911.48Q538.347 910.974 538.525 910.459Q538.702 909.943 538.854 909.419Q539.005 908.895 539.13 908.365Q539.255 907.834 539.353 907.297Q539.452 906.761 539.523 906.221Q539.594 905.68 539.638 905.136Q539.682 904.593 539.699 904.048Q539.716 903.503 539.705 902.957Q539.694 902.412 539.656 901.868Q539.618 901.324 539.553 900.783Q539.488 900.241 539.396 899.704Q539.303 899.167 539.184 898.635Q539.065 898.102 538.919 897.577Q538.774 897.051 538.602 896.534Q538.435 896.012 538.242 895.499Q538.049 894.986 537.831 894.484Q537.612 893.981 537.368 893.49Q537.124 892.999 536.856 892.521Q536.588 892.043 536.296 891.58Q536.004 891.116 535.688 890.668Q535.373 890.219 535.036 889.787Q534.699 889.355 534.34 888.941Q533.981 888.527 533.602 888.131Q533.223 887.735 532.824 887.359Q532.425 886.983 532.008 886.628Q531.591 886.273 531.156 885.939Q530.721 885.605 530.27 885.293Q529.819 884.982 529.353 884.694Q528.887 884.405 528.407 884.141Q527.927 883.877 527.434 883.637C523.648 881.819 519.773 881.343 515.623 881.533Z"/>
	<path fill="#122942" d="M638.703 782.67C646.436 782.143 653.979 783.21 660.703 787.266Q661.405 787.697 662.086 788.162Q662.766 788.627 663.422 789.125Q664.079 789.623 664.71 790.152Q665.341 790.682 665.945 791.242Q666.549 791.803 667.125 792.392Q667.701 792.982 668.247 793.599Q668.793 794.216 669.307 794.859Q669.822 795.503 670.305 796.171Q670.787 796.839 671.236 797.53Q671.685 798.221 672.099 798.933Q672.513 799.645 672.892 800.377Q673.27 801.109 673.612 801.859Q673.954 802.608 674.259 803.374Q674.563 804.14 674.83 804.919Q675.096 805.699 675.323 806.491Q675.551 807.283 675.739 808.085Q675.936 808.893 676.092 809.71Q676.249 810.527 676.365 811.351Q676.482 812.175 676.558 813.003Q676.634 813.832 676.669 814.663Q676.704 815.494 676.698 816.326Q676.692 817.158 676.645 817.988Q676.598 818.819 676.511 819.646Q676.424 820.474 676.296 821.296Q676.168 822.118 676 822.932Q675.831 823.747 675.623 824.553Q675.415 825.358 675.168 826.152Q674.921 826.947 674.635 827.728Q674.349 828.509 674.025 829.275Q673.701 830.041 673.34 830.791Q672.978 831.54 672.581 832.271Q672.183 833.002 671.75 833.712C666.298 842.477 657.912 846.808 648.125 849.074C639.22 850.241 630.369 848.573 623.007 843.278Q622.346 842.805 621.708 842.301Q621.071 841.796 620.46 841.26Q619.849 840.724 619.265 840.158Q618.682 839.592 618.127 838.998Q617.572 838.404 617.048 837.782Q616.523 837.161 616.03 836.515Q615.538 835.868 615.078 835.198Q614.618 834.528 614.192 833.835Q613.766 833.143 613.375 832.43Q612.984 831.718 612.629 830.986Q612.274 830.255 611.956 829.507Q611.638 828.759 611.358 827.996Q611.077 827.233 610.835 826.457Q610.593 825.68 610.391 824.893Q610.188 824.106 610.024 823.31Q609.861 822.513 609.737 821.71C608.294 812.641 610.054 803.192 615.528 795.72C621.249 787.911 629.324 784.09 638.703 782.67ZM641.64 791.614C634.274 793.027 627.889 795.35 623.391 801.799C619.623 807.201 618.572 814.021 619.771 820.432Q619.88 821.049 620.021 821.659Q620.162 822.27 620.333 822.872Q620.505 823.474 620.708 824.067Q620.911 824.66 621.144 825.241Q621.377 825.823 621.64 826.391Q621.902 826.96 622.194 827.514Q622.486 828.069 622.805 828.607Q623.125 829.146 623.472 829.667Q623.819 830.189 624.193 830.692Q624.566 831.195 624.965 831.677Q625.364 832.161 625.788 832.622Q626.211 833.084 626.657 833.523Q627.104 833.963 627.572 834.379Q628.041 834.794 628.53 835.185Q629.019 835.577 629.528 835.942Q630.037 836.307 630.564 836.646C634.434 839.086 640.283 840.938 644.913 840.403C652.582 838.699 658.831 835.922 663.114 828.912Q663.442 828.381 663.743 827.833Q664.044 827.286 664.316 826.724Q664.589 826.162 664.833 825.587Q665.076 825.012 665.291 824.426Q665.505 823.839 665.689 823.243Q665.874 822.646 666.028 822.041Q666.181 821.436 666.304 820.823Q666.427 820.211 666.519 819.593Q666.611 818.976 666.671 818.354Q666.732 817.732 666.76 817.109Q666.789 816.485 666.786 815.86Q666.784 815.236 666.749 814.612Q666.715 813.989 666.648 813.368Q666.582 812.747 666.485 812.13Q666.388 811.513 666.259 810.902Q666.13 810.291 665.971 809.687C664.343 803.519 660.376 797.993 654.797 794.826C651.22 792.795 645.797 791.139 641.64 791.614Z"/>
	<path fill="#122942" d="M298.848 782.177C306.825 780.946 315.915 783.45 322.642 787.739C330.273 792.604 335.921 800.2 337.813 809.098Q337.976 809.898 338.1 810.704Q338.224 811.511 338.308 812.323Q338.391 813.135 338.435 813.95Q338.479 814.765 338.483 815.581Q338.486 816.397 338.45 817.213Q338.413 818.028 338.336 818.84Q338.26 819.653 338.143 820.461Q338.027 821.269 337.87 822.07Q337.714 822.871 337.519 823.663Q337.323 824.456 337.089 825.238Q336.855 826.019 336.582 826.789Q336.31 827.558 336 828.313Q335.69 829.068 335.343 829.807Q334.997 830.546 334.614 831.267Q334.231 831.988 333.813 832.689Q333.396 833.39 332.944 834.07C327.052 843.09 318.216 847.774 307.893 849.909C299.334 851.108 290.131 849.273 282.997 844.302C275.135 838.825 269.705 829.932 268.173 820.502C266.769 811.867 268.61 803.143 273.831 796.068C279.976 787.742 288.846 783.714 298.848 782.177ZM301.568 790.633C293.754 791.977 287.365 794.632 282.69 801.44Q282.321 801.98 281.979 802.537Q281.638 803.095 281.324 803.669Q281.01 804.243 280.726 804.832Q280.441 805.421 280.186 806.023Q279.931 806.625 279.706 807.239Q279.481 807.853 279.287 808.478Q279.093 809.102 278.931 809.736Q278.768 810.369 278.637 811.01Q278.506 811.651 278.407 812.297Q278.308 812.944 278.241 813.594Q278.174 814.245 278.14 814.898Q278.106 815.551 278.104 816.205Q278.102 816.859 278.133 817.512Q278.163 818.166 278.227 818.817Q278.29 819.468 278.385 820.115Q278.481 820.761 278.608 821.403Q278.732 822.029 278.888 822.649Q279.044 823.268 279.231 823.879Q279.418 824.489 279.636 825.09Q279.854 825.69 280.101 826.279Q280.349 826.867 280.626 827.443Q280.904 828.018 281.21 828.579Q281.516 829.139 281.849 829.684Q282.183 830.228 282.544 830.755Q282.905 831.281 283.293 831.789Q283.68 832.297 284.092 832.785Q284.505 833.272 284.941 833.738Q285.378 834.205 285.837 834.648Q286.297 835.092 286.778 835.511Q287.26 835.931 287.762 836.326Q288.264 836.72 288.785 837.089Q289.307 837.458 289.846 837.8C294.665 840.811 299.62 841.633 305.178 841.541C312.826 839.942 319.239 837.185 323.683 830.357Q324.031 829.813 324.35 829.252Q324.67 828.691 324.962 828.115Q325.254 827.539 325.516 826.949Q325.779 826.359 326.012 825.757Q326.244 825.154 326.447 824.541Q326.649 823.928 326.821 823.306Q326.993 822.683 327.133 822.053Q327.274 821.423 327.383 820.786Q327.492 820.15 327.569 819.509Q327.646 818.868 327.691 818.224Q327.736 817.579 327.749 816.934Q327.762 816.288 327.742 815.643Q327.723 814.997 327.672 814.354Q327.62 813.71 327.537 813.07Q327.453 812.43 327.338 811.794Q327.223 811.159 327.076 810.53C325.551 803.777 321.513 797.885 315.556 794.31C311.54 791.901 306.265 790.432 301.568 790.633Z"/>
	<path fill="#2D6C8F" d="M174.994 413.118C146.902 371.773 132.868 324.04 136.91 274Q137.102 271.567 137.354 269.139Q137.606 266.711 137.918 264.29Q138.23 261.87 138.601 259.457Q138.972 257.045 139.403 254.642Q139.833 252.24 140.323 249.849Q140.813 247.457 141.361 245.079Q141.909 242.701 142.516 240.336Q143.123 237.972 143.788 235.624Q144.452 233.275 145.175 230.944Q145.897 228.612 146.677 226.299Q147.456 223.987 148.293 221.693Q149.129 219.4 150.022 217.129Q150.914 214.857 151.862 212.608Q152.811 210.359 153.814 208.134Q154.817 205.909 155.875 203.709Q156.933 201.509 158.045 199.336Q159.156 197.164 160.321 195.019Q161.486 192.874 162.703 190.758Q163.921 188.643 165.19 186.558Q166.459 184.473 167.779 182.42Q169.099 180.367 170.469 178.347Q171.839 176.327 173.258 174.341Q174.678 172.356 176.146 170.406Q177.614 168.455 179.129 166.542Q180.645 164.629 182.207 162.754Q183.769 160.878 185.377 159.042Q186.985 157.205 188.638 155.409Q190.29 153.613 191.987 151.858Q193.683 150.103 195.422 148.391Q197.161 146.678 198.942 145.009Q200.723 143.339 202.544 141.714Q204.365 140.09 206.226 138.51C246.19 104.64 300.473 89.4859 352.307 93.8197Q354.315 94.0056 356.318 94.2326Q358.322 94.4596 360.32 94.7276Q362.318 94.9955 364.311 95.3043Q366.303 95.6131 368.289 95.9626Q370.275 96.312 372.253 96.7021Q374.231 97.0921 376.201 97.5226Q378.171 97.953 380.131 98.4237Q382.092 98.8944 384.042 99.4051Q385.993 99.9157 387.933 100.466Q389.872 101.017 391.8 101.607Q393.728 102.197 395.644 102.826Q397.559 103.456 399.461 104.124Q401.364 104.793 403.252 105.5Q405.14 106.207 407.013 106.953Q408.886 107.699 410.744 108.483Q412.602 109.267 414.443 110.088Q416.284 110.91 418.108 111.769Q419.932 112.629 421.738 113.525Q423.544 114.422 425.331 115.355Q427.119 116.288 428.887 117.258Q430.654 118.227 432.402 119.233Q434.15 120.238 435.876 121.279Q437.603 122.32 439.308 123.397Q441.013 124.473 442.696 125.584Q444.378 126.695 446.038 127.84Q447.697 128.985 449.333 130.164Q450.969 131.342 452.58 132.555Q454.192 133.767 455.778 135.011Q457.364 136.256 458.924 137.533Q460.485 138.81 462.018 140.119Q463.552 141.427 465.059 142.767Q466.566 144.107 468.045 145.477C474.175 151.202 479.678 157.56 485.094 163.951C479.024 165.046 472.944 166.113 466.947 167.563C463.008 168.516 458.67 170.161 454.712 170.641C419.677 136.717 380.958 118.694 331.446 119.4Q329.336 119.445 327.229 119.541Q325.121 119.638 323.016 119.785Q320.911 119.933 318.81 120.132Q316.71 120.331 314.614 120.581Q312.519 120.832 310.431 121.133Q308.342 121.434 306.262 121.786Q304.181 122.138 302.11 122.541Q300.039 122.943 297.978 123.396Q295.917 123.849 293.868 124.353Q291.819 124.856 289.782 125.409Q287.746 125.962 285.724 126.564Q283.702 127.166 281.695 127.818Q279.688 128.47 277.697 129.17Q275.707 129.87 273.734 130.619Q271.761 131.367 269.807 132.164Q267.853 132.96 265.919 133.804Q263.985 134.648 262.073 135.539Q260.16 136.43 258.269 137.367Q256.379 138.304 254.512 139.287Q252.645 140.27 250.802 141.298Q248.959 142.326 247.142 143.399Q245.326 144.472 243.535 145.589Q241.745 146.706 239.982 147.866Q238.22 149.026 236.486 150.229Q234.753 151.432 233.049 152.676Q231.345 153.921 229.672 155.207Q227.999 156.493 226.358 157.819Q224.717 159.145 223.108 160.511Q221.5 161.877 219.925 163.281Q218.351 164.686 216.811 166.129Q215.271 167.571 213.767 169.051Q212.263 170.531 210.795 172.047C177.991 205.989 162.433 250.138 163.33 296.977C163.934 328.539 174.973 365.603 194.039 391.011C188.005 398.609 181.135 405.579 174.994 413.118Z"/>
	<path fill="#2D6C8F" d="M538.58 164.221C549.104 152.993 559.685 142.116 571.853 132.646C605.486 106.473 647.603 93.9044 689.849 92.6597C740.078 91.1798 790.863 112.555 827.099 146.898Q828.876 148.559 830.611 150.262Q832.346 151.966 834.039 153.712Q835.731 155.458 837.38 157.245Q839.03 159.032 840.634 160.86Q842.239 162.687 843.798 164.553Q845.357 166.419 846.87 168.323Q848.383 170.227 849.848 172.168Q851.314 174.108 852.731 176.084Q854.148 178.061 855.516 180.071Q856.885 182.081 858.203 184.125Q859.521 186.168 860.788 188.244Q862.056 190.319 863.272 192.425Q864.488 194.531 865.652 196.666Q866.816 198.801 867.927 200.965Q869.038 203.128 870.095 205.318Q871.152 207.508 872.155 209.723Q873.158 211.938 874.106 214.177Q875.055 216.417 875.947 218.679Q876.84 220.941 877.677 223.224Q878.514 225.507 879.294 227.81Q880.075 230.114 880.798 232.435Q881.521 234.757 882.188 237.096Q882.854 239.435 883.462 241.789Q884.07 244.144 884.62 246.512Q885.17 248.881 885.662 251.263Q886.153 253.644 886.586 256.037Q887.019 258.43 887.393 260.833Q887.767 263.236 888.081 265.647Q888.396 268.059 888.651 270.477Q888.906 272.896 889.101 275.319Q889.297 277.743 889.432 280.171Q889.568 282.599 889.644 285.03Q889.714 287.183 889.737 289.336Q889.761 291.49 889.738 293.643Q889.716 295.797 889.647 297.949Q889.578 300.102 889.463 302.252Q889.348 304.403 889.187 306.551Q889.026 308.698 888.819 310.842Q888.612 312.986 888.359 315.124Q888.106 317.263 887.808 319.396Q887.509 321.529 887.165 323.655Q886.82 325.781 886.431 327.899Q886.041 330.017 885.606 332.126Q885.171 334.235 884.69 336.335Q884.21 338.434 883.685 340.523Q883.16 342.612 882.59 344.688Q882.021 346.765 881.406 348.83Q880.792 350.894 880.134 352.944Q879.476 354.995 878.774 357.031Q878.072 359.067 877.326 361.088Q876.58 363.108 875.792 365.112Q875.003 367.116 874.172 369.103Q873.34 371.09 872.466 373.058Q871.592 375.026 870.677 376.976Q869.761 378.925 868.803 380.854Q867.846 382.783 866.847 384.691Q865.849 386.599 864.81 388.486Q863.77 390.372 862.691 392.236Q861.612 394.099 860.492 395.939Q859.373 397.779 858.215 399.595Q857.057 401.411 855.86 403.201Q854.663 404.992 853.428 406.756Q852.193 408.52 850.92 410.258Q849.648 411.995 848.338 413.705C843.207 406.233 836.158 399.651 830.204 392.788Q830.837 392.038 831.44 391.264C855.877 359.926 866.3 309.909 861.549 271.098Q861.288 268.983 860.975 266.875Q860.661 264.767 860.296 262.667Q859.931 260.567 859.514 258.477Q859.097 256.387 858.629 254.308Q858.161 252.229 857.641 250.162Q857.122 248.095 856.552 246.041Q855.982 243.988 855.361 241.949Q854.74 239.91 854.069 237.887Q853.399 235.864 852.678 233.858Q851.958 231.853 851.188 229.865Q850.419 227.878 849.6 225.91Q848.782 223.942 847.915 221.995Q847.048 220.048 846.134 218.123Q845.219 216.198 844.258 214.296Q843.296 212.394 842.288 210.516Q841.279 208.639 840.225 206.786Q839.171 204.934 838.071 203.108Q836.972 201.283 835.827 199.485Q834.683 197.687 833.495 195.918Q832.307 194.148 831.075 192.409Q829.843 190.67 828.569 188.961Q827.295 187.253 825.979 185.576Q824.664 183.9 823.307 182.256Q821.95 180.612 820.553 179.003Q819.156 177.393 817.72 175.818Q816.284 174.244 814.81 172.705Q813.335 171.166 811.823 169.664Q810.311 168.162 808.762 166.698Q807.214 165.234 805.63 163.808Q804.045 162.382 802.427 160.996Q800.808 159.61 799.155 158.264Q797.502 156.919 795.817 155.614Q794.125 154.311 792.401 153.049Q790.678 151.788 788.924 150.569Q787.17 149.35 785.387 148.175Q783.604 146.999 781.793 145.867Q779.982 144.736 778.143 143.649Q776.305 142.562 774.44 141.52Q772.576 140.478 770.687 139.482Q768.797 138.487 766.884 137.537Q764.971 136.588 763.035 135.686Q761.099 134.783 759.142 133.929Q757.185 133.074 755.207 132.267Q753.229 131.461 751.233 130.703Q749.236 129.945 747.221 129.236Q745.207 128.527 743.175 127.868Q741.144 127.209 739.097 126.599Q737.05 125.99 734.989 125.43Q732.927 124.871 730.853 124.362Q728.779 123.854 726.693 123.396Q724.607 122.938 722.51 122.531Q720.413 122.125 718.307 121.769Q716.201 121.414 714.087 121.11Q711.973 120.807 709.852 120.555Q707.731 120.303 705.605 120.103Q703.479 119.903 701.348 119.755Q699.217 119.608 697.084 119.512Q694.95 119.416 692.815 119.373Q690.68 119.329 688.544 119.338Q686.408 119.347 684.273 119.407Q682.138 119.468 680.006 119.582Q677.873 119.695 675.743 119.86Q673.614 120.025 671.489 120.243Q669.365 120.46 667.246 120.729C631.14 125.365 591.563 143.253 569.101 172.406C558.855 169.39 548.976 166.645 538.58 164.221Z"/>
	<path fill="#122942" d="M284.585 176.821C287.915 181.78 290.833 187.128 293.872 192.277C291 196.879 287.703 201.248 284.484 205.613C281.106 203.06 277.66 196.806 275.87 192.947C277.702 186.895 281.152 182.048 284.585 176.821Z"/>
	<path fill="#122942" d="M319.173 189.736C323.608 193.886 327.056 201.462 330.168 206.709C327.15 211.274 324.187 215.834 321.424 220.56C317.881 217.784 312.643 208.874 310.836 204.64C313.239 199.587 316.446 194.653 319.173 189.736Z"/>
	<path fill="#122942" d="M251.399 189.336C255.04 192.761 257.64 199.184 260.256 203.503L248.915 219.779L248.013 219.891C244.743 216.825 242.422 211.801 240.269 207.894C244.157 201.821 247.619 195.479 251.399 189.336Z"/>
	<path fill="#122942" d="M332.41 212.798C335.642 214.929 348.163 236.789 350.838 241.392L342.875 241.283L336.132 241.151L324.873 225.702C327.153 221.305 329.875 217.057 332.41 212.798Z"/>
	<path fill="#122942" d="M236.18 213.751C239.667 216.526 242.452 222.666 244.731 226.553C240.767 231.938 236.777 237.253 232.514 242.406L226.325 242.443L217.649 242.467C223.385 232.674 229.923 223.223 236.18 213.751Z"/>
	<path fill="#122942" d="M297.589 191.249C300.229 193.588 302.621 201.45 304.734 204.885C312.314 217.209 321.405 228.598 329.159 240.805L322.396 240.919L316.339 240.82C308.002 228.718 298.765 217.273 290.771 204.918C293.618 200.459 296.252 196.409 297.589 191.249Z"/>
	<path fill="#122942" d="M271.228 189.327C272.542 195.388 274.605 199.836 278.245 204.842C273.635 213.356 267.676 221.118 262.055 228.982C259.337 232.784 256.78 236.965 253.697 240.463C252.143 242.226 251.495 242.645 249.125 242.791L240.783 242.826C244.783 235.581 249.768 228.659 254.12 221.598C260.583 211.111 266.13 200.534 271.228 189.327Z"/>
	<path fill="#122942" d="M284.225 205.823C289.022 210.398 292.609 216.75 296.341 222.201L310.628 242.746C302.073 243.028 293.439 242.788 284.875 242.79Q271.836 242.799 258.798 242.985C266.539 230.234 275.704 218.077 284.225 205.823Z"/>
	<path fill="#122942" d="M769.668 193.206C773.936 196.467 776.982 203.343 779.67 207.991C777.56 212.018 775.21 215.918 772.915 219.842C768.939 215.142 765.829 209.492 762.589 204.27C765.129 200.66 767.491 197.047 769.668 193.206Z"/>
	<path fill="#122942" d="M737.405 176.813C740.687 179.04 744.912 187.835 747.033 191.513C743.757 195.456 740.745 199.704 737.64 203.788L737.184 203.99C734.519 203.112 729.926 194.235 728.26 191.582C731.011 186.469 734.187 181.638 737.405 176.813Z"/>
	<path fill="#122942" d="M703.258 192.729C706.755 195.211 709.325 201.848 711.153 205.591C708.053 211.627 704.468 217.337 700.623 222.92C698.001 218.749 694.818 214.877 692.114 210.735Q697.599 201.678 703.258 192.729Z"/>
	<path fill="#122942" d="M687.59 215.979C691.476 218.943 694.504 223.609 697.476 227.466C693.848 232.352 690.507 237.508 687.066 242.53L682.625 242.634L670.984 242.68C675.515 233.403 681.952 224.631 687.59 215.979Z"/>
	<path fill="#122942" d="M783.237 214.467C790.782 221.298 797.747 233.998 803.098 242.767L795.405 242.816L788.575 242.804L775.363 224.792L783.237 214.467Z"/>
	<path fill="#122942" d="M724.398 196.834C727.639 199.714 729.506 202.828 731.476 206.612Q724.077 215.894 716.845 225.307C712.356 231.203 708.014 237.906 702.502 242.875L694.41 242.945C697.538 237.675 701.112 232.621 704.405 227.447C710.954 217.156 717.412 206.838 724.398 196.834Z"/>
	<path fill="#122942" d="M751.192 196.372C757.49 202.985 761.947 212.972 766.644 220.817C771.097 228.254 775.918 235.485 780.601 242.779L773.305 242.805C769.51 242.131 747.301 210.922 743.662 206.091C746.065 202.77 748.642 199.581 751.192 196.372Z"/>
	<path fill="#122942" d="M737.823 208.262C744.009 212.638 759.208 235.083 763.837 242.506C755.254 242.893 746.619 242.707 738.027 242.691Q724.819 242.764 711.613 242.98C719.818 230.996 728.768 219.606 737.823 208.262Z"/>
	<path fill="#122942" d="M485.094 163.951C495.972 162.136 528.978 160.629 538.58 164.221C548.976 166.645 558.855 169.39 569.101 172.406C609.415 185.378 645.492 217.441 664.706 255.002C676.815 278.674 682.385 304.178 684.089 330.581C729.554 333.516 771.737 346.261 808.321 373.955C815.9 379.692 823.636 385.899 830.204 392.788C836.158 399.651 843.207 406.233 848.338 413.705C855.296 423.961 862.179 434.188 867.773 445.269C885.795 480.968 892.317 523.3 886.955 562.852Q886.62 565.268 886.225 567.675Q885.83 570.082 885.376 572.478Q884.922 574.874 884.409 577.259Q883.896 579.643 883.324 582.014Q882.752 584.385 882.122 586.742Q881.492 589.098 880.804 591.438Q880.116 593.778 879.37 596.1Q878.624 598.422 877.822 600.725Q877.019 603.029 876.16 605.311Q875.3 607.594 874.385 609.855Q873.47 612.115 872.499 614.353Q871.528 616.59 870.502 618.803Q869.476 621.016 868.396 623.203Q867.316 625.39 866.182 627.549Q865.049 629.709 863.862 631.839Q862.675 633.97 861.436 636.071Q860.197 638.172 858.907 640.242Q857.616 642.312 856.275 644.349Q854.934 646.386 853.543 648.39Q852.152 650.393 850.712 652.362Q849.273 654.33 847.784 656.263Q846.296 658.195 844.761 660.091Q843.226 661.986 841.644 663.842Q840.062 665.699 838.435 667.516Q836.808 669.333 835.137 671.11Q833.466 672.886 831.751 674.621Q830.036 676.355 828.28 678.047Q826.523 679.739 824.724 681.387Q822.926 683.034 821.088 684.637Q819.25 686.24 817.372 687.798Q815.495 689.355 813.58 690.865Q811.665 692.375 809.713 693.838Q807.765 695.315 805.781 696.743Q803.797 698.171 801.779 699.55Q799.761 700.929 797.709 702.258Q795.658 703.588 793.574 704.866Q791.491 706.144 789.376 707.371Q787.262 708.597 785.118 709.772Q782.974 710.946 780.802 712.067Q778.63 713.189 776.431 714.256Q774.232 715.324 772.008 716.337Q769.783 717.35 767.534 718.308Q765.286 719.267 763.014 720.169Q760.742 721.072 758.449 721.919Q756.156 722.765 753.843 723.555Q751.529 724.345 749.198 725.078Q746.865 725.811 744.516 726.486Q742.167 727.161 739.802 727.779Q737.437 728.396 735.057 728.955Q732.677 729.514 730.285 730.014Q727.892 730.515 725.488 730.956Q723.083 731.398 720.669 731.78Q718.255 732.162 715.832 732.485Q713.409 732.807 710.978 733.071Q708.548 733.334 706.112 733.537Q703.676 733.74 701.236 733.884Q698.796 734.027 696.353 734.11Q693.91 734.193 691.466 734.217Q689.021 734.24 686.577 734.203Q684.133 734.166 681.69 734.07Q679.248 733.973 676.809 733.816Q674.369 733.659 671.934 733.442Q669.5 733.225 667.071 732.949Q664.642 732.672 662.221 732.336C621.514 726.686 586.788 709.368 556.098 682.259C549.227 676.189 541.5 669.46 535.981 662.16C520.271 663.41 504.332 664.37 488.692 661.808C455.966 696.968 419.647 721.971 371.494 730.285C317.001 739.693 263.822 729.624 218.373 697.489Q216.396 696.065 214.455 694.593Q212.514 693.121 210.61 691.602Q208.706 690.083 206.84 688.517Q204.973 686.952 203.146 685.341Q201.319 683.73 199.531 682.075Q197.744 680.419 195.998 678.72Q194.252 677.022 192.549 675.281Q190.845 673.539 189.185 671.757Q187.524 669.974 185.908 668.152Q184.292 666.329 182.721 664.467Q181.15 662.605 179.626 660.705Q178.101 658.805 176.624 656.868Q175.146 654.932 173.717 652.959Q172.287 650.987 170.907 648.98Q169.526 646.972 168.196 644.932Q166.865 642.892 165.585 640.819Q164.304 638.747 163.075 636.643Q161.846 634.54 160.67 632.407Q159.493 630.274 158.369 628.113Q157.244 625.952 156.174 623.764Q155.103 621.576 154.087 619.362Q153.07 617.149 152.108 614.911Q151.146 612.672 150.24 610.411Q149.333 608.15 148.482 605.868Q147.631 603.585 146.837 601.282Q146.042 598.979 145.305 596.658Q144.567 594.336 143.887 591.997Q143.207 589.658 142.584 587.303Q141.961 584.948 141.397 582.578Q140.832 580.209 140.326 577.826Q139.82 575.443 139.372 573.048Q138.925 570.654 138.536 568.249C129.176 513.064 142.71 458.533 174.994 413.118C181.135 405.579 188.005 398.609 194.039 391.011C234.641 351.993 283.72 334.031 339.411 331.015C340.332 310.087 343.963 289.304 351.858 269.823Q352.555 268.078 353.289 266.348Q354.024 264.619 354.796 262.906Q355.568 261.193 356.377 259.497Q357.186 257.801 358.032 256.123Q358.878 254.445 359.761 252.786Q360.643 251.127 361.561 249.488Q362.479 247.848 363.433 246.229Q364.387 244.61 365.375 243.012Q366.364 241.414 367.387 239.838Q368.411 238.262 369.468 236.709Q370.525 235.155 371.616 233.626Q372.707 232.096 373.831 230.59Q374.955 229.084 376.112 227.603Q377.268 226.122 378.457 224.666Q379.645 223.211 380.865 221.782Q382.085 220.353 383.336 218.95Q384.586 217.548 385.867 216.173Q387.148 214.798 388.459 213.452Q389.77 212.105 391.109 210.788Q392.449 209.47 393.817 208.182Q395.185 206.894 396.581 205.636Q397.976 204.377 399.399 203.15Q400.822 201.923 402.271 200.727Q403.72 199.53 405.195 198.366Q406.67 197.202 408.17 196.07Q409.67 194.938 411.194 193.839Q412.718 192.74 414.266 191.675Q415.814 190.609 417.384 189.578Q418.955 188.546 420.548 187.549Q422.14 186.552 423.754 185.59Q425.368 184.628 427.003 183.701Q428.638 182.774 430.292 181.883C438.166 177.592 446.458 174.12 454.712 170.641C458.67 170.161 463.008 168.516 466.947 167.563C472.944 166.113 479.024 165.046 485.094 163.951ZM192.54 434.836C187.603 443.303 182.076 451.057 177.878 459.998C160.654 496.676 157.345 540.083 167.689 579.169Q168.235 581.248 168.832 583.312Q169.43 585.377 170.078 587.426Q170.726 589.475 171.424 591.508Q172.122 593.541 172.87 595.555Q173.618 597.57 174.416 599.566Q175.213 601.562 176.06 603.537Q176.906 605.513 177.801 607.467Q178.696 609.421 179.638 611.353Q180.581 613.284 181.571 615.192Q182.561 617.099 183.598 618.982Q184.634 620.865 185.717 622.721Q186.8 624.578 187.928 626.407Q189.056 628.236 190.229 630.037Q191.402 631.838 192.619 633.61Q193.836 635.381 195.096 637.122Q196.356 638.864 197.658 640.573Q198.961 642.282 200.305 643.959Q201.65 645.636 203.035 647.279Q204.42 648.923 205.846 650.531Q207.271 652.14 208.735 653.713Q210.2 655.286 211.703 656.822Q213.206 658.359 214.746 659.858Q216.286 661.357 217.863 662.817Q219.439 664.278 221.052 665.699Q222.664 667.12 224.31 668.502Q225.957 669.883 227.637 671.223Q229.318 672.563 231.03 673.861Q232.743 675.16 234.487 676.416Q236.231 677.671 238.006 678.884Q239.781 680.096 241.585 681.265Q243.388 682.433 245.221 683.556Q247.053 684.68 248.912 685.758Q250.717 686.789 252.546 687.775Q254.376 688.762 256.228 689.704Q258.081 690.646 259.956 691.543Q261.831 692.439 263.728 693.29Q265.624 694.141 267.54 694.946Q269.457 695.75 271.392 696.508Q273.327 697.266 275.281 697.977Q277.234 698.688 279.204 699.351Q281.173 700.014 283.159 700.629Q285.144 701.245 287.144 701.811Q289.143 702.378 291.156 702.896Q293.169 703.414 295.194 703.884Q297.219 704.353 299.254 704.773Q301.29 705.193 303.335 705.563Q305.38 705.933 307.434 706.254Q309.488 706.575 311.548 706.845Q313.609 707.116 315.676 707.337Q317.743 707.557 319.814 707.728Q321.886 707.898 323.961 708.018Q326.036 708.138 328.113 708.208Q330.19 708.278 332.269 708.297Q334.347 708.316 336.425 708.285Q338.503 708.254 340.58 708.173Q342.657 708.091 344.731 707.959Q346.806 707.827 348.876 707.645Q350.947 707.463 353.012 707.231Q355.078 706.998 357.137 706.716Q359.196 706.433 361.248 706.101Q363.299 705.769 365.342 705.387Q367.385 705.005 369.419 704.573Q371.452 704.142 373.474 703.661Q375.496 703.181 377.506 702.651C408.076 694.445 435.68 678.999 457.642 656.096C445.651 650.867 433.565 645.706 422.317 638.977Q419.319 637.153 416.398 635.21Q413.476 633.267 410.636 631.207Q407.795 629.146 405.041 626.973Q402.286 624.799 399.622 622.516Q396.958 620.233 394.388 617.843Q391.818 615.454 389.348 612.963Q386.877 610.471 384.509 607.882Q382.141 605.292 379.88 602.609Q377.619 599.925 375.469 597.153Q373.318 594.38 371.282 591.523Q369.246 588.665 367.327 585.728Q365.408 582.79 363.61 579.777Q361.811 576.764 360.136 573.681Q358.461 570.597 356.913 567.449Q355.364 564.3 353.944 561.091Q352.525 557.883 351.236 554.619C343.818 535.572 341.383 516.376 339.812 496.152C339.045 487.456 340.565 478.179 341.725 469.543C290.286 468.484 245.525 450.593 209.316 413.532C203.053 420.003 196.684 426.754 192.54 434.836ZM813.993 414.239Q812.424 415.851 810.815 417.424Q809.207 418.996 807.56 420.529Q805.913 422.061 804.228 423.552Q802.544 425.043 800.823 426.491Q799.102 427.94 797.345 429.346Q795.589 430.751 793.798 432.113Q792.007 433.474 790.183 434.791Q788.36 436.108 786.504 437.379Q784.648 438.65 782.761 439.875Q780.874 441.099 778.957 442.277Q777.04 443.454 775.095 444.584Q773.149 445.713 771.176 446.794Q769.204 447.875 767.204 448.907Q765.205 449.939 763.182 450.921Q761.157 451.902 759.11 452.834Q757.062 453.765 754.992 454.645Q752.922 455.526 750.83 456.354Q748.739 457.183 746.628 457.959Q744.516 458.736 742.386 459.46Q740.256 460.184 738.109 460.855Q735.962 461.525 733.799 462.143Q731.636 462.76 729.458 463.324Q727.28 463.887 725.089 464.397Q722.898 464.906 720.695 465.361Q718.491 465.816 716.278 466.216Q714.064 466.616 711.841 466.961Q709.618 467.306 707.387 467.596Q705.157 467.886 702.919 468.12Q700.682 468.355 698.44 468.533Q696.197 468.712 693.951 468.835Q691.705 468.958 689.456 469.026Q687.208 469.093 684.958 469.105Q683.671 469.115 682.385 469.108C682.541 475.004 683.06 491.024 684.49 495.991C684.561 517.825 678.688 540.874 670.039 560.852C648.522 610.553 614.396 636.017 565.39 655.477C587.749 679.885 622.199 698.026 654.41 704.876C698.006 714.148 746.015 704.793 783.295 680.47Q785.096 679.295 786.868 678.076Q788.64 676.857 790.381 675.594Q792.123 674.332 793.832 673.027Q795.542 671.722 797.219 670.375Q798.896 669.029 800.539 667.641Q802.183 666.254 803.791 664.826Q805.4 663.398 806.973 661.932Q808.546 660.465 810.082 658.96Q811.619 657.454 813.117 655.912Q814.616 654.369 816.077 652.79Q817.537 651.211 818.958 649.597Q820.379 647.983 821.76 646.333Q823.141 644.684 824.48 643.002Q825.82 641.319 827.118 639.604Q828.416 637.889 829.671 636.143Q830.926 634.396 832.138 632.62Q833.35 630.843 834.518 629.036Q835.685 627.23 836.808 625.396Q837.931 623.562 839.008 621.7Q840.086 619.839 841.117 617.951Q842.148 616.064 843.132 614.151Q844.116 612.239 845.053 610.303Q845.99 608.367 846.879 606.408Q847.768 604.45 848.608 602.47Q849.449 600.49 850.24 598.49Q851.031 596.491 851.773 594.472Q852.515 592.453 853.207 590.417Q853.899 588.38 854.54 586.327Q855.182 584.274 855.773 582.206Q856.363 580.138 856.903 578.056Q857.442 575.974 857.931 573.88Q858.419 571.785 858.855 569.679Q859.545 566.35 860.104 562.996Q860.664 559.642 861.09 556.268Q861.517 552.895 861.811 549.507Q862.105 546.12 862.265 542.723Q862.425 539.327 862.452 535.927Q862.479 532.526 862.372 529.128Q862.265 525.729 862.024 522.338Q861.784 518.946 861.41 515.566Q861.036 512.186 860.53 508.824Q860.023 505.462 859.385 502.122Q858.747 498.782 857.978 495.47Q857.209 492.158 856.31 488.878Q855.412 485.599 854.385 482.357Q853.358 479.116 852.205 475.917Q851.051 472.719 849.773 469.568Q848.494 466.417 847.093 463.319C842.546 453.456 836.89 444.336 830.931 435.28C826.079 427.692 820.211 420.745 813.993 414.239ZM510.056 182.233C468.033 183.82 428.924 200.392 400.194 231.451C374.115 259.644 358.858 298.245 360.494 336.794C361.266 354.97 364.402 374.785 373.027 390.948Q379.124 384.491 384.928 377.77Q384.366 376.24 383.842 374.696Q383.318 373.152 382.832 371.596Q382.346 370.039 381.898 368.472Q381.45 366.904 381.042 365.326Q380.633 363.747 380.263 362.16Q379.893 360.572 379.562 358.975Q379.231 357.379 378.94 355.775Q378.648 354.171 378.396 352.56Q378.144 350.949 377.932 349.333Q377.72 347.716 377.548 346.095Q377.375 344.474 377.243 342.849Q377.11 341.224 377.018 339.596Q376.926 337.968 376.873 336.339Q376.821 334.709 376.809 333.079Q376.796 331.449 376.824 329.818Q376.852 328.188 376.92 326.559Q376.988 324.93 377.096 323.304Q377.204 321.677 377.352 320.053Q377.5 318.43 377.687 316.81Q377.875 315.19 378.103 313.576Q378.33 311.962 378.598 310.353Q378.865 308.745 379.172 307.144Q379.478 305.543 379.824 303.949Q380.17 302.356 380.556 300.772Q380.941 299.188 381.365 297.613Q381.789 296.039 382.251 294.476Q382.714 292.912 383.214 291.361Q383.715 289.809 384.254 288.271Q384.793 286.732 385.37 285.207Q385.946 283.682 386.56 282.171Q387.174 280.661 387.825 279.166Q388.476 277.671 389.163 276.193Q389.868 274.683 390.611 273.191Q391.353 271.699 392.133 270.226Q392.912 268.752 393.727 267.299Q394.543 265.845 395.394 264.412Q396.245 262.979 397.131 261.568Q398.017 260.156 398.938 258.767Q399.859 257.378 400.814 256.012Q401.768 254.646 402.757 253.304Q403.745 251.962 404.766 250.645Q405.787 249.328 406.841 248.036Q407.894 246.745 408.979 245.48Q410.064 244.215 411.18 242.977Q412.296 241.739 413.443 240.529Q414.589 239.32 415.765 238.138Q416.94 236.957 418.145 235.805Q419.35 234.654 420.582 233.532Q421.815 232.41 423.075 231.32Q424.335 230.229 425.622 229.169Q426.908 228.11 428.221 227.083Q429.533 226.056 430.871 225.061Q432.208 224.067 433.57 223.106Q434.931 222.144 436.316 221.217Q437.701 220.29 439.108 219.398Q440.516 218.505 441.945 217.647Q443.374 216.79 444.824 215.968Q446.274 215.146 447.743 214.36Q449.213 213.574 450.702 212.824Q452.19 212.075 453.697 211.363Q455.204 210.65 456.728 209.975Q458.251 209.301 459.792 208.664Q461.332 208.027 462.887 207.428Q464.442 206.829 466.012 206.269C498.775 194.564 537.827 196.183 569.244 211.214Q570.776 211.949 572.29 212.722Q573.804 213.494 575.298 214.303Q576.793 215.112 578.267 215.958Q579.742 216.803 581.195 217.684Q582.648 218.565 584.079 219.481Q585.511 220.397 586.919 221.348Q588.328 222.299 589.713 223.284Q591.098 224.269 592.459 225.287Q593.819 226.305 595.154 227.357Q596.49 228.408 597.799 229.492Q599.108 230.575 600.391 231.69Q601.673 232.805 602.928 233.951Q604.183 235.098 605.41 236.274Q606.636 237.45 607.834 238.656Q609.031 239.862 610.199 241.097Q611.367 242.332 612.504 243.594Q613.641 244.857 614.747 246.148Q615.853 247.438 616.928 248.755Q618.002 250.071 619.044 251.414Q620.086 252.757 621.095 254.124Q622.104 255.492 623.079 256.884Q624.054 258.276 624.995 259.691Q625.936 261.106 626.842 262.544Q627.748 263.982 628.619 265.441Q629.49 266.901 630.325 268.381Q631.16 269.861 631.958 271.361Q632.757 272.861 633.519 274.381Q634.281 275.9 635.005 277.437Q635.729 278.974 636.416 280.529Q637.103 282.083 637.752 283.654Q638.4 285.225 639.01 286.811Q639.621 288.397 640.192 289.998C651.65 323.053 647.975 361.704 632.585 392.854Q629.875 398.382 626.559 403.57Q625.602 405.01 624.611 406.427Q623.62 407.843 622.594 409.235Q621.569 410.627 620.51 411.994Q619.452 413.361 618.36 414.702Q617.269 416.043 616.145 417.357Q615.022 418.671 613.867 419.958Q612.711 421.244 611.526 422.502Q610.34 423.76 609.124 424.99Q607.908 426.219 606.662 427.418Q605.417 428.617 604.143 429.786Q602.869 430.955 601.567 432.092Q600.265 433.23 598.935 434.335Q597.606 435.441 596.251 436.514Q594.895 437.588 593.514 438.628Q592.133 439.668 590.727 440.674Q589.321 441.68 587.891 442.652Q586.461 443.624 585.008 444.562Q583.556 445.499 582.08 446.4Q580.605 447.302 579.108 448.168Q577.612 449.033 576.095 449.863Q574.578 450.692 573.041 451.484Q571.504 452.276 569.949 453.031Q568.393 453.786 566.82 454.503Q565.246 455.22 563.656 455.898Q562.066 456.577 560.46 457.217Q558.854 457.857 557.233 458.458Q555.611 459.059 553.976 459.62Q552.341 460.181 550.693 460.703Q549.044 461.225 547.384 461.706Q545.723 462.188 544.051 462.629Q542.38 463.071 540.698 463.471Q539.016 463.872 537.325 464.232C505.437 471.012 469.568 465.582 442.121 447.704C433.684 442.209 426.333 435.586 418.975 428.77C416.152 433.099 413.166 437.388 410.623 441.887C439.611 468.558 475.537 485.135 515.583 483.43C557.069 481.664 594.707 464.271 622.707 433.57C649.087 404.645 665.17 366.144 663.394 326.664C661.566 286.033 642.891 248.658 612.938 221.47C584.864 195.986 547.743 182.685 510.056 182.233ZM504.784 343.203C463.557 346.334 425.674 363.975 398.534 395.579Q397.302 396.988 396.105 398.427Q394.907 399.866 393.746 401.335Q392.585 402.803 391.46 404.299Q390.336 405.796 389.248 407.319Q388.161 408.843 387.112 410.393Q386.062 411.943 385.051 413.519Q384.041 415.095 383.069 416.695Q382.097 418.295 381.166 419.918Q380.234 421.542 379.342 423.188Q378.451 424.834 377.6 426.501Q376.75 428.169 375.941 429.857Q375.131 431.545 374.364 433.253Q373.597 434.96 372.872 436.686Q372.147 438.412 371.465 440.155Q370.783 441.898 370.145 443.658Q369.506 445.418 368.911 447.193Q368.316 448.967 367.765 450.756Q367.214 452.545 366.707 454.347Q366.2 456.149 365.738 457.963Q365.276 459.777 364.859 461.602Q364.441 463.427 364.069 465.262Q363.697 467.096 363.371 468.939Q363.044 470.783 362.763 472.633Q362.482 474.484 362.247 476.341Q362.011 478.198 361.822 480.061Q361.633 481.923 361.489 483.789Q361.346 485.656 361.249 487.525Q361.152 489.395 361.101 491.266Q361.05 493.137 361.045 495.009Q361.04 496.881 361.082 498.753Q361.123 500.624 361.211 502.494Q361.298 504.364 361.432 506.231C364.621 545.397 384.64 583.145 414.651 608.446C445.178 634.183 486.503 646.433 526.181 642.912Q528.035 642.749 529.885 642.541Q531.734 642.332 533.578 642.078Q535.422 641.824 537.259 641.524Q539.096 641.225 540.925 640.88Q542.754 640.535 544.574 640.146Q546.394 639.756 548.204 639.322Q550.014 638.887 551.812 638.408Q553.611 637.929 555.397 637.406Q557.184 636.883 558.956 636.316Q560.729 635.749 562.487 635.138Q564.246 634.527 565.988 633.874Q567.731 633.22 569.457 632.523Q571.183 631.827 572.891 631.088Q574.6 630.349 576.289 629.568Q577.979 628.787 579.649 627.965Q581.318 627.143 582.968 626.28Q584.617 625.417 586.244 624.513Q587.871 623.61 589.475 622.666Q591.08 621.723 592.661 620.74Q594.241 619.757 595.797 618.736Q597.353 617.715 598.884 616.655Q600.414 615.596 601.918 614.499Q603.422 613.402 604.898 612.268Q606.374 611.135 607.822 609.965Q609.27 608.796 610.688 607.591Q612.107 606.385 613.495 605.146Q614.884 603.906 616.241 602.633Q617.598 601.359 618.924 600.053Q620.25 598.746 621.543 597.407Q622.836 596.068 624.095 594.698Q625.355 593.328 626.58 591.927Q627.806 590.526 628.996 589.095C653.317 559.812 666.551 519.949 662.879 481.927C661.283 465.407 657.291 448.764 650.458 433.607C646.584 437.939 642.745 442.389 638.672 446.533C646.597 471.236 649.953 495.792 644.338 521.402C636.069 556.992 615.508 587.556 584.203 606.899Q582.75 607.779 581.276 608.623Q579.802 609.467 578.308 610.275Q576.814 611.083 575.3 611.855Q573.787 612.627 572.256 613.362Q570.724 614.098 569.176 614.796Q567.627 615.494 566.062 616.154Q564.497 616.814 562.916 617.436Q561.336 618.059 559.741 618.643Q558.145 619.227 556.537 619.772Q554.928 620.317 553.306 620.823Q551.685 621.329 550.051 621.796Q548.418 622.263 546.774 622.69Q545.13 623.117 543.476 623.505Q541.822 623.892 540.159 624.239Q538.497 624.587 536.826 624.893Q535.155 625.2 533.477 625.467Q531.8 625.734 530.116 625.959Q528.433 626.185 526.744 626.371Q525.056 626.556 523.363 626.7Q521.67 626.844 519.975 626.948Q518.279 627.051 516.582 627.113Q514.884 627.176 513.186 627.197Q511.487 627.218 509.789 627.199Q508.09 627.179 506.392 627.118Q504.695 627.057 502.999 626.955Q501.304 626.854 499.611 626.711Q497.918 626.568 496.23 626.385Q494.541 626.201 492.857 625.977Q491.173 625.752 489.495 625.487Q487.818 625.222 486.147 624.917Q484.476 624.611 482.812 624.266Q481.149 623.92 479.495 623.534Q477.869 623.137 476.254 622.7Q474.638 622.263 473.034 621.786Q471.43 621.309 469.838 620.792Q468.247 620.275 466.668 619.719Q465.09 619.162 463.526 618.567Q461.961 617.972 460.413 617.338Q458.864 616.704 457.331 616.032Q455.798 615.36 454.283 614.65Q452.768 613.94 451.27 613.192Q449.773 612.445 448.295 611.66Q446.816 610.876 445.358 610.055Q443.9 609.234 442.462 608.377Q441.024 607.52 439.609 606.628Q438.193 605.735 436.8 604.808Q435.407 603.881 434.037 602.919Q432.667 601.958 431.322 600.962Q429.976 599.967 428.656 598.938Q427.336 597.91 426.041 596.849Q424.747 595.788 423.48 594.695Q422.212 593.603 420.972 592.479Q419.732 591.355 418.52 590.2Q417.309 589.046 416.126 587.862Q414.943 586.678 413.79 585.465Q412.637 584.252 411.515 583.01Q410.393 581.769 409.301 580.5Q408.21 579.231 407.151 577.935Q406.091 576.64 405.065 575.318Q404.038 573.997 403.044 572.65Q402.05 571.304 401.091 569.933Q400.131 568.562 399.205 567.168Q398.279 565.773 397.389 564.356Q396.498 562.94 395.643 561.501Q394.809 560.107 394.009 558.693Q393.21 557.279 392.445 555.846Q391.68 554.413 390.951 552.961Q390.221 551.51 389.528 550.041Q388.834 548.572 388.177 547.086Q387.519 545.601 386.899 544.1Q386.278 542.599 385.694 541.083Q385.11 539.567 384.564 538.037Q384.018 536.507 383.509 534.965Q383 533.422 382.529 531.867Q382.059 530.312 381.626 528.747Q381.194 527.181 380.8 525.605Q380.406 524.029 380.05 522.444Q379.695 520.859 379.379 519.265Q379.063 517.672 378.786 516.071Q378.509 514.471 378.271 512.864Q378.033 511.257 377.835 509.645Q377.637 508.032 377.478 506.416Q377.319 504.799 377.2 503.179Q377.081 501.559 377.002 499.936Q376.923 498.314 376.883 496.69Q376.844 495.066 376.844 493.441Q376.845 491.817 376.885 490.193Q376.925 488.569 377.005 486.947Q377.085 485.324 377.205 483.704Q377.325 482.084 377.484 480.468Q377.643 478.851 377.843 477.239Q378.042 475.627 378.28 474.02Q378.519 472.413 378.797 470.813Q379.074 469.212 379.391 467.619Q379.708 466.026 380.064 464.441Q380.42 462.856 380.815 461.28C389.788 425.399 414.866 395.097 446.38 376.408C476.02 358.831 512.454 354.669 545.689 363.231C568.646 369.146 587.757 381.035 604.743 397.303C607.724 392.515 610.773 387.713 613.039 382.533C582.981 356.974 544.76 340.585 504.784 343.203ZM501.783 219.667C469.424 223.569 441.301 237.619 421.006 263.485Q420.152 264.561 419.324 265.659Q418.497 266.756 417.697 267.874Q416.897 268.992 416.125 270.129Q415.354 271.266 414.611 272.422Q413.868 273.579 413.153 274.753Q412.439 275.927 411.755 277.119Q411.07 278.311 410.416 279.519Q409.761 280.728 409.137 281.952Q408.512 283.176 407.918 284.416Q407.325 285.655 406.762 286.909Q406.2 288.163 405.668 289.431Q405.137 290.698 404.638 291.979Q404.138 293.259 403.671 294.552Q403.204 295.844 402.769 297.148Q402.333 298.452 401.931 299.766Q401.529 301.08 401.159 302.404Q400.79 303.728 400.453 305.06Q400.117 306.393 399.814 307.733Q399.51 309.074 399.241 310.421Q398.971 311.769 398.735 313.123Q398.499 314.477 398.297 315.836Q398.095 317.196 397.927 318.56Q397.758 319.924 397.624 321.292Q397.49 322.66 397.39 324.03Q397.29 325.401 397.224 326.774Q397.158 328.147 397.126 329.521Q397.095 330.895 397.097 332.269Q397.1 333.643 397.137 335.017Q397.173 336.391 397.244 337.764Q397.316 339.136 397.421 340.507Q397.526 341.877 397.665 343.244Q397.805 344.612 397.978 345.975C398.656 351.411 399.898 356.655 401.438 361.905C408.661 357.439 415.331 352.151 422.512 347.616Q425.987 345.447 429.566 343.454Q433.144 341.462 436.818 339.649Q440.491 337.837 444.25 336.21Q448.009 334.583 451.845 333.145Q455.68 331.708 459.583 330.463Q463.485 329.218 467.445 328.168Q471.404 327.119 475.411 326.269Q479.418 325.418 483.462 324.768C490.968 323.371 498.814 324.107 506.175 322.585C510.44 321.971 514.98 322.377 519.283 322.48Q530.772 323.008 542.125 324.85C542.06 297.825 540.851 273.162 532.78 247.135C529.951 238.013 526.119 229.232 523.137 220.163C516.143 219.633 508.773 219.179 501.783 219.667ZM401.928 461.8C394.028 493.374 396.193 523.827 413.269 552.17Q413.993 553.356 414.746 554.525Q415.498 555.693 416.279 556.843Q417.06 557.992 417.868 559.123Q418.677 560.253 419.513 561.363Q420.348 562.474 421.211 563.563Q422.073 564.653 422.962 565.722Q423.851 566.79 424.765 567.836Q425.68 568.883 426.62 569.907Q427.559 570.931 428.524 571.932Q429.488 572.932 430.476 573.909Q431.465 574.886 432.477 575.839Q433.488 576.792 434.523 577.719Q435.558 578.647 436.615 579.55Q437.672 580.452 438.751 581.328Q439.829 582.205 440.929 583.055Q442.028 583.904 443.148 584.727Q444.268 585.55 445.408 586.346Q446.548 587.141 447.706 587.908Q448.865 588.676 450.042 589.415Q451.219 590.154 452.413 590.864Q453.608 591.574 454.82 592.255Q456.031 592.936 457.259 593.587Q458.487 594.239 459.73 594.86Q460.973 595.481 462.231 596.072Q463.489 596.663 464.761 597.223Q466.033 597.782 467.318 598.311Q468.603 598.84 469.901 599.338Q471.198 599.835 472.508 600.301Q473.817 600.767 475.137 601.201Q476.458 601.634 477.788 602.036Q479.119 602.438 480.459 602.807Q481.799 603.176 483.147 603.512C490.328 605.287 497.359 605.734 504.585 606.928C512.187 607.434 519.524 607.04 527.086 606.355C526.102 603.674 524.9 601.036 523.808 598.394C526.126 589.729 529.768 581.468 532.08 572.793C538.233 549.71 541.205 526.118 543.276 502.375L542.881 501.339C540.471 501.278 523.296 502.873 521.879 503.793C521.821 503.831 521.781 503.892 521.732 503.942C518.111 502.314 509.657 503.534 505.515 503.634Q494.252 502.962 483.028 501.804C451.913 495.109 425.891 482.848 401.928 461.8ZM209.316 413.532C245.525 450.593 290.286 468.484 341.725 469.543C345.306 449.496 351.774 431.877 360.263 413.411C357.385 406.699 354.003 400.206 351.312 393.409C346.685 381.718 343.869 369.54 341.619 357.205C302.068 358.004 262.928 369.519 231.22 393.751C223.383 399.741 216.282 406.568 209.316 413.532ZM681.654 357.248C680.215 376.496 672.079 396.114 663.05 412.98C671.852 430.985 678.825 449.316 682.385 469.108Q683.671 469.115 684.958 469.105Q687.208 469.093 689.456 469.026Q691.705 468.958 693.951 468.835Q696.197 468.712 698.439 468.533Q700.682 468.355 702.919 468.12Q705.157 467.886 707.387 467.596Q709.618 467.306 711.841 466.961Q714.064 466.616 716.278 466.216Q718.492 465.816 720.695 465.361Q722.898 464.906 725.089 464.397Q727.28 463.887 729.458 463.324Q731.636 462.76 733.799 462.143Q735.962 461.525 738.109 460.855Q740.256 460.184 742.386 459.46Q744.516 458.736 746.628 457.959Q748.739 457.183 750.83 456.354Q752.922 455.526 754.992 454.645Q757.062 453.765 759.11 452.834Q761.157 451.902 763.182 450.921Q765.205 449.939 767.204 448.907Q769.203 447.875 771.176 446.794Q773.149 445.713 775.095 444.584Q777.04 443.454 778.957 442.277Q780.874 441.099 782.761 439.875Q784.648 438.65 786.504 437.379Q788.36 436.108 790.184 434.791Q792.007 433.474 793.798 432.113Q795.589 430.751 797.345 429.346Q799.102 427.94 800.823 426.491Q802.544 425.043 804.228 423.552Q805.913 422.061 807.56 420.529Q809.207 418.996 810.815 417.424Q812.424 415.851 813.993 414.239C778.355 378.053 733.388 357.677 682.321 357.253L681.654 357.248ZM543.276 502.375C541.205 526.118 538.233 549.71 532.08 572.793C529.768 581.468 526.126 589.729 523.808 598.394C524.9 601.036 526.102 603.674 527.086 606.355C533.527 604.523 540.198 603.619 546.657 601.67C574.815 593.173 599.979 571.878 613.799 546Q614.444 544.815 615.061 543.615Q615.677 542.414 616.263 541.199Q616.85 539.984 617.406 538.755Q617.962 537.526 618.489 536.283Q619.015 535.041 619.51 533.786Q620.005 532.531 620.47 531.264Q620.934 529.997 621.367 528.719Q621.8 527.441 622.202 526.153Q622.603 524.865 622.973 523.567Q623.343 522.27 623.681 520.963Q624.018 519.657 624.324 518.343Q624.629 517.029 624.903 515.707Q625.176 514.386 625.416 513.058Q625.657 511.731 625.865 510.398Q626.073 509.064 626.248 507.726Q626.423 506.389 626.565 505.047Q626.707 503.705 626.816 502.36Q626.925 501.015 627.001 499.668Q627.077 498.321 627.12 496.973Q627.163 495.624 627.173 494.275Q627.183 492.925 627.159 491.576Q627.136 490.227 627.079 488.879Q627.023 487.531 626.933 486.185Q626.844 484.839 626.721 483.495Q626.598 482.151 626.442 480.811Q626.286 479.471 626.098 478.135Q625.909 476.799 625.688 475.468Q625.467 474.137 625.213 472.812Q624.958 471.487 624.672 470.168Q624.385 468.85 624.067 467.539Q623.748 466.227 623.397 464.925Q623.046 463.622 622.663 462.328C605.737 475 589.282 486.806 569.06 493.863Q561.523 496.426 553.808 498.387C550.475 499.239 546.732 499.811 543.598 501.226L543.276 502.375ZM523.137 220.163C526.119 229.232 529.951 238.013 532.78 247.135C540.851 273.162 542.06 297.825 542.125 324.85C571.495 329.579 599.37 343.564 622.058 362.736Q624.571 353.675 625.8 344.353C629.32 315.985 620.32 286.578 602.744 264.203C582.731 238.729 555.043 224.103 523.137 220.163ZM512.796 380.329Q501.258 380.597 489.92 382.755C498.82 402.536 506.447 424.373 508.189 446.117L508.506 446.354C514.208 447.28 525.24 445.7 531.002 444.338C546.924 441.279 562.599 435.612 575.915 426.234C581.164 422.536 585.992 418.245 591.051 414.294Q590.22 413.367 589.352 412.475C568.908 391.473 541.885 380.786 512.796 380.329ZM432.534 412.534C450.945 432.699 479.192 446.028 506.694 446.418C507.441 446.429 507.284 446.386 508.189 446.117C506.447 424.373 498.82 402.536 489.92 382.755C468.59 386.024 447.587 397.221 432.534 412.534Z"/>
	<path fill="#2D6C8F" d="M489.92 382.755Q501.258 380.597 512.796 380.329C518.55 394.193 522.921 408.271 526.334 422.888C527.987 429.968 529.064 437.359 531.002 444.338C525.24 445.7 514.208 447.28 508.506 446.354L508.189 446.117C506.447 424.373 498.82 402.536 489.92 382.755Z"/>
	<path fill="#2D6C8F" d="M521.732 503.942C521.781 503.892 521.821 503.831 521.879 503.793C523.296 502.873 540.471 501.278 542.881 501.339L543.276 502.375C541.205 526.118 538.233 549.71 532.08 572.793C529.768 581.468 526.126 589.729 523.808 598.394C524.9 601.036 526.102 603.674 527.086 606.355C519.524 607.04 512.187 607.434 504.585 606.928C502.094 599.89 498.207 593.307 495.682 586.195C485.836 558.464 483.441 531.024 483.028 501.804Q494.252 502.962 505.515 503.634C509.657 503.534 518.111 502.314 521.732 503.942ZM505.515 503.634C505.852 523.123 507.879 542.016 512.32 561.005C516.401 542.264 521.143 523.206 521.732 503.942C518.111 502.314 509.657 503.534 505.515 503.634Z"/>
	<path fill="#2D6C8F" d="M501.783 219.667C508.773 219.179 516.143 219.633 523.137 220.163C526.119 229.232 529.951 238.013 532.78 247.135C540.851 273.162 542.06 297.825 542.125 324.85Q530.772 323.008 519.283 322.48C514.98 322.377 510.44 321.971 506.175 322.585C498.814 324.107 490.968 323.371 483.462 324.768C483.477 314.27 483.231 303.675 483.936 293.198C485.658 267.578 492.877 243.611 501.783 219.667ZM506.175 322.585C510.44 321.971 514.98 322.377 519.283 322.48C520.016 303.044 516.748 284.444 512.557 265.56C506.046 284.611 505.243 302.686 506.175 322.585Z"/>
	<path fill="#122942" d="M683.16 623.453L700.969 623.505L701.104 653.462Q692.22 653.395 683.336 653.444C682.96 643.479 683.192 633.428 683.16 623.453Z"/>
	<path fill="#122942" d="M766.854 616.182C772.411 615.966 778.01 616.024 783.573 615.967C783.908 628.462 783.711 641.062 783.578 653.564Q775.188 653.503 766.8 653.683L766.854 616.182Z"/>
	<path fill="#122942" d="M749.307 592.98C753.381 592.835 757.46 592.887 761.537 592.905Q761.79 623.209 761.644 653.514L749.34 653.556C748.99 633.402 749.057 613.137 749.307 592.98Z"/>
	<path fill="#122942" d="M706.089 589.507L723.5 589.516L723.48 653.491L706.35 653.508C705.539 632.257 706.33 610.791 706.089 589.507Z"/>
	<path fill="#122942" d="M728.527 572.188Q736.436 572.148 744.344 572.211C743.06 599.179 744.465 626.437 744.213 653.454C739.043 653.655 733.789 653.49 728.611 653.493L728.527 572.188Z"/>
	<path fill="#2D6C8F" d="M813.993 414.239C820.211 420.745 826.079 427.692 830.931 435.28C801.439 465.394 759.47 485.869 718.118 492.956C706.978 494.865 695.761 495.447 684.49 495.991C683.06 491.024 682.541 475.004 682.385 469.108Q683.671 469.115 684.958 469.105Q687.208 469.093 689.456 469.026Q691.705 468.958 693.951 468.835Q696.197 468.712 698.439 468.533Q700.682 468.355 702.919 468.12Q705.157 467.886 707.387 467.596Q709.618 467.306 711.841 466.961Q714.064 466.616 716.278 466.216Q718.492 465.816 720.695 465.361Q722.898 464.906 725.089 464.397Q727.28 463.887 729.458 463.324Q731.636 462.76 733.799 462.143Q735.962 461.525 738.109 460.855Q740.256 460.184 742.386 459.46Q744.516 458.736 746.628 457.959Q748.739 457.183 750.83 456.354Q752.922 455.526 754.992 454.645Q757.062 453.765 759.11 452.834Q761.157 451.902 763.182 450.921Q765.205 449.939 767.204 448.907Q769.203 447.875 771.176 446.794Q773.149 445.713 775.095 444.584Q777.04 443.454 778.957 442.277Q780.874 441.099 782.761 439.875Q784.648 438.65 786.504 437.379Q788.36 436.108 790.184 434.791Q792.007 433.474 793.798 432.113Q795.589 430.751 797.345 429.346Q799.102 427.94 800.823 426.491Q802.544 425.043 804.228 423.552Q805.913 422.061 807.56 420.529Q809.207 418.996 810.815 417.424Q812.424 415.851 813.993 414.239Z"/>
	<path fill="#122942" d="M321.569 622.604C327.348 622.771 333.166 622.667 338.949 622.69L338.931 652.865Q330.293 652.807 321.655 652.906L321.569 622.604Z"/>
	<path fill="#122942" d="M238.519 615.185L255.377 615.231L255.405 652.897C249.774 652.728 244.139 652.823 238.506 652.871L238.519 615.185Z"/>
	<path fill="#122942" d="M259.7 594.514L275.488 594.678L275.427 652.781L259.672 652.859Q259.501 623.685 259.7 594.514Z"/>
	<path fill="#122942" d="M301.074 587.652L317.267 587.656C317.852 609.365 317.484 631.173 317.51 652.891C312.016 652.775 306.507 652.84 301.012 652.831L301.074 587.652Z"/>
	<path fill="#122942" d="M280.337 571.167C285.669 570.991 291.028 571.095 296.364 571.089L296.451 652.88C291.125 652.714 285.772 652.827 280.443 652.832L280.337 571.167Z"/>
	<path fill="#2D6C8F" d="M192.54 434.836C196.684 426.754 203.053 420.003 209.316 413.532C245.525 450.593 290.286 468.484 341.725 469.543C340.565 478.179 339.045 487.456 339.812 496.152C328.855 495.822 317.915 495.331 307.06 493.731Q304.123 493.283 301.201 492.747Q298.279 492.212 295.374 491.59Q292.469 490.967 289.584 490.259Q286.699 489.551 283.836 488.757Q280.974 487.962 278.136 487.083Q275.298 486.205 272.488 485.242Q269.678 484.278 266.897 483.232Q264.117 482.186 261.369 481.057Q258.621 479.928 255.908 478.718Q253.194 477.508 250.519 476.218Q247.843 474.928 245.206 473.558Q242.57 472.189 239.976 470.742Q237.381 469.295 234.831 467.771Q232.281 466.247 229.777 464.648Q227.274 463.048 224.819 461.375Q222.364 459.702 219.96 457.957C210.316 450.818 201.764 442.473 192.54 434.836Z"/>
</svg>
